<?xml version="1.0" encoding="utf-8"?>
<!-- Generator: Adobe Illustrator 20.1.0, SVG Export Plug-In . SVG Version: 6.00 Build 0)  -->
<svg version="1.1" id="Layer_1" xmlns="http://www.w3.org/2000/svg" xmlns:xlink="http://www.w3.org/1999/xlink" x="0px" y="0px"
	 viewBox="0 0 800 600" style="enable-background:new 0 0 800 600;" xml:space="preserve">
<style type="text/css">
	.st0{fill:#77F2EB;}
	.st1{fill:#CCCCCA;stroke:#3A9FAD;stroke-miterlimit:10;}
	.st2{fill:#E2E2E0;}
	.st3{fill:#C4C4C4;}
	.st4{fill:#E6E8E8;}
	.st5{fill:#49CEF2;}
	.st6{fill:#FCFCFC;}
	.st7{fill:#F2CC11;}
	.st8{fill:#282828;}
	.st9{fill:#EA8C2F;}
	.st10{fill:#F2D351;}
	.st11{fill:#FFF794;}
	.st12{fill:#E8E8E8;}
	.st13{fill:#7F7F7F;}
	.st14{fill:#C6C4C4;}
	.st15{fill:#63D6E5;}
	.st16{fill:#898989;}
	.st17{fill:#E86262;}
	.st18{fill:#2476ED;}
	.st19{fill:none;stroke:#2476ED;stroke-miterlimit:10;}
	.st20{fill:#9B9B9B;}
	.st21{fill:#FCE47E;}
	.st22{fill:#D6CE43;}
	.st23{fill:#D1CD3D;}
</style>
<g id="tiles">
	<polygon class="st0" points="797.7,600 -2.3,600 -2.3,350.1 -2.3,0 797.7,0 	"/>
	<path class="st1" d="M-0.1,54.2h801.5H-0.1z"/>
	<path class="st1" d="M0.9,105.2h801.5H0.9z"/>
	<path class="st1" d="M-0.1,151.2h801.5H-0.1z"/>
	<path class="st1" d="M0.9,202.2h801.5H0.9z"/>
	<path class="st1" d="M-3.1,251.2h801.5H-3.1z"/>
	<path class="st1" d="M-2.1,302.2h801.5H-2.1z"/>
	<path class="st1" d="M-2.1,354.2h801.5H-2.1z"/>
	<path class="st1" d="M-1.1,405.2h801.5H-1.1z"/>
	<path class="st1" d="M79.2,471.5V0V471.5z"/>
	<path class="st1" d="M159.7,466.9V0V466.9z"/>
	<path class="st1" d="M241.6,474V0V474z"/>
	<path class="st1" d="M322.7,479.7V0V479.7z"/>
	<path class="st1" d="M403.9,471.5V0V471.5z"/>
	<path class="st1" d="M488.8,474V0V474z"/>
	<path class="st1" d="M573.7,466.9V0V466.9z"/>
	<path class="st1" d="M658.7,471.5V0V471.5z"/>
	<path class="st1" d="M736.1,453.8V0V453.8z"/>
</g>
<g id="bathtub">
	<path id="body" class="st2" d="M0,466.6h800V600c0,0-663.3,2.2-751.8,0C2.3,539.4,0,466.6,0,466.6z"/>
	<rect id="body_1_" x="398.8" y="466.6" class="st3" width="400.9" height="133.4"/>
	<path id="backrim" class="st4" d="M0,424.1c0,0,0.9,44.2,15,23c29.1-43.7,113.4-117,384.4-118S763,417.2,779,448.8
		c9.2,18.1,21-24.7,21-24.7s17-118-400-119.5S0,424.1,0,424.1z"/>
	<path id="water-base" class="st5" d="M0,457.9c0,0,87.2,79.9,400,81.5s400-81.5,400-81.5s17-132.1-400-133.7S0,457.9,0,457.9z"/>
	<path id="outerrim" class="st6" d="M0,422c0,0,179.7,98.5,400,98.5c203.6,0,401.2-91.5,401.2-91.5l0.1,43
		c0,0-173.7,84.9-401.3,84.9S-0.1,465.1-0.1,465.1L0,422z"/>
	<path class="st2" d="M802.3,472c0,0-173.7,84.9-401.3,84.9c-0.8,0-1.5,0-2.3,0v-36.4c0.8,0,1.5,0,2.3,0
		c203.6,0,401.2-91.5,401.2-91.5L802.3,472z"/>
</g>
<g id="Duck" class="duckling">
	<ellipse id="duck-head" class="st7" cx="377.6" cy="309.5" rx="27.6" ry="24.1"/>
	
		<ellipse id="eye" transform="matrix(0.2471 -0.969 0.969 0.2471 -17.1064 582.5321)" class="st8" cx="366.3" cy="302.3" rx="5.7" ry="2.3"/>
	<path id="beak" class="st9" d="M349.2,304.7c0,0-0.1,6.8,8.4,10.2s0.6,12.9-11.2,11.3c-11.9-1.5-4-6.2-1.7-6.6c3-0.4,4-1.1,4-1.8
		c0-0.8-1.6-1.6-3.1-1.9c-6.1-1.1-8.6-4.3-8.9-4.9s-1.1-7.8,2.9-8.9C341.1,301.7,343.2,305.9,349.2,304.7z"/>
	<path id="body-duck" class="st7" d="M471.4,317.7c0,57.7-32.6,59.3-61.4,59.3s-52.3-13.7-52.3-30.7s22.1-20.2,51-20.2
		c13.2,0,23.4,0.2,35.7-2.8C456.3,320.4,471.4,308.5,471.4,317.7z"/>
	<path id="feather-shadow" class="st10" d="M384.7,343.8c-1.3,13,4.7,23.2,46.1,19.5c37.2-3.3-19,11.3-37.6,5.1
		c-18.6-6.1-14.7-17.2-14.7-17.2S379.9,345.7,384.7,343.8z"/>
	<path id="feather-highlight" class="st11" d="M414.4,347.3c0,0-15.2-13.5-29.8-3.8c-8.2,12.7,15.7,21.5,19.5,20
		s-16.9-10.6-13.9-15.8S407.9,345.6,414.4,347.3z"/>
	<path id="head-highlight" class="st11" d="M370.3,286.3c0,0-20.3,5.2-17.5,20c1.3,6.5,4,4.6,3.7-5.1
		C356.1,290.2,370.3,286.3,370.3,286.3z"/>
	
		<ellipse id="eye-highlight" transform="matrix(0.3188 -0.9478 0.9478 0.3188 -35.7025 551.6151)" class="st12" cx="365.9" cy="300.6" rx="3.2" ry="0.7"/>
	<path id="tail-highlight" class="st11" d="M465.7,315.4c0,0-9.6,9.8-21.8,8.8C453.6,326.3,457.6,325.9,465.7,315.4z"/>
	<path id="tail-shadow" class="st10" d="M468.9,318.1c0,0,2.6,33.8-21,46.9C460.5,349.1,468.9,318.1,468.9,318.1z"/>
</g>
<g id="C-handle">
	<g id="C-Base">
		<path class="st13" d="M279.8,273v50.1c0,0-2.2,1.8-11.8,1.8c-9.6,0-11.8-1.8-11.8-1.8v-59.9h23.7V273z"/>
	</g>
	<path id="C-base-highlight" class="st14" d="M264.1,266.3c0,0-0.6,54.5,0,58.6c-4,0-8-1.8-8-1.8v-59.9L264.1,266.3z"/>
	<polygon id="C-top" class="st15" points="295.7,275.2 307.6,280.4 316.4,271.9 275.8,255.5 256.1,259.2 	"/>
	<polygon id="C-left" class="st14" points="256.1,267.1 256.1,259.2 295.7,275.2 297,283.6 	"/>
	<path id="H-front_1_" class="st16" d="M295.8,283.1c0,0,4.1,3.2,12.2,1.9s8.6-4.5,8.6-4.5v-8.5c0,0-2.8,2.9-10,4.1
		s-10.8-0.7-10.8-0.7V283.1z"/>
</g>
<g id="H-handle">
	<g id="h-base_2_">
		<path class="st13" d="M61.1,303.2h23.7v59.9c0,0-2.2,1.8-11.8,1.8s-11.8-1.8-11.8-1.8V313V303.2z"/>
	</g>
	<path id="H-base-highlight_2_" class="st14" d="M69.1,306.1c0,0-0.6,54.5,0,58.6c-4,0-8-1.8-8-1.8V303L69.1,306.1z"/>
	<polygon id="H-top_2_" class="st17" points="45.2,315.2 33.3,320.4 24.5,311.9 65,295.5 84.8,299.2 	"/>
	<polygon id="H-right_2_" class="st14" points="84.7,307.1 84.8,299.2 45.2,315.2 43.9,323.6 	"/>
	<path id="H-front_3_" class="st16" d="M45.2,323c0,0-4.1,3.2-12.2,1.9s-8.6-4.5-8.6-4.5v-8.5c0,0,2.8,2.9,10,4.1s10.8-0.7,10.8-0.7
		V323z"/>
</g>
<g id="Water-cold">
	<polygon class="st18" points="207.6,241 206.9,401.6 237.1,401.6 232.7,241 	"/>
	<path class="st19" d="M174.6,397.5c5.9-2.5,12.7-1.4,18.8,0.4s12.2,4.2,18.6,4.4s13.4-2.6,15.9-8.5c2.2,5.1,8.1,7.7,13.7,7.9
		s11-1.4,16.5-2.4c5.5-1,11.4-1.3,16.3,1.4"/>
</g>
<g id="faucet-base_2_">
	<path class="st13" d="M136.7,181.9h36.4v153.3c0,0-3.4,4.6-18.2,4.6c-14.8,0-18.2-4.6-18.2-4.6V207V181.9z"/>
	<polygon id="faucet-top_2_" class="st20" points="201.6,225 220.6,238.2 238,225 173.1,181.9 136.7,181.9 	"/>
	<path id="faucet-front_2_" class="st16" d="M201.6,241c0,0,4,5.8,18.2,5.8S238,241,238,241v-16c0,0-5.6,4.6-18.2,4.6
		s-18.2-4.6-18.2-4.6V241z"/>
	<polygon id="faucet-top-highlight_2_" class="st14" points="136.7,197 136.7,181.9 201.6,225 201.6,241 	"/>
	<path id="faucet-base-highlight_2_" class="st14" d="M147.1,204c0,0-0.8,125.8,0,135.2c-5.2,0-10.4-4.1-10.4-4.1V197L147.1,204z"/>
</g>
<g id="water">
	<path id="water-4" class="st19" d="M363.6,483.1c7,0.7,14,1.3,20.9-0.1c6.8-1.4,13.5-5.3,16.6-11.6c0.1,5.9,6.2,9.9,11.9,11.5
		c12.5,3.4,26.7-0.2,36-9.2c7.5,8.3,18.4,13.5,29.6,14.2"/>
	<path id="water-3" class="st19" d="M129.5,420.8c14.5,2.3,29.9-4.2,38.4-16.1c9.5,16.1,32.2,22.7,48.8,14.1c3.5-1.8,6.8-4.1,10.6-5
		c8.3-1.8,16.2,4,23.1,9c6.9,5,16.1,9.6,23.6,5.4"/>
	<path id="water-2" class="st19" d="M332,382.2c15.9-0.5,31.1-10.3,38.2-24.6c7.7,16.1,28.3,24.7,45.2,18.8
		c5.2-1.8,9.9-4.8,15.3-5.9c11.3-2.5,22.6,3.4,32.7,9.1"/>
	<path id="water-1" class="st19" d="M472.1,417.3c15.8-0.9,31.1-9.3,40.2-22.3c3.9,9.7,14.2,16.4,24.7,16s20.3-7.9,23.4-17.8
		c11.2,12.5,29.1,18.5,45.6,15.4"/>
</g>
<g id="Curtain">
	<path id="curtain-bg" class="st21" d="M803.7,600V0h-217l12.5,224.9l-15.3,264.6l2.8,110.5c0,0,22.2-6,51.2-7.7s46.1,7.7,46.1,7.7
		s40.9-9.4,66.5-11.1S803.7,600,803.7,600z"/>
	<path id="shadow-l" class="st22" d="M683.9,600V0H643l-5.1,592.3C637.9,592.3,660.9,586.2,683.9,600z"/>
	<path id="shadow-r" class="st23" d="M804.4,606L803.7-2.4l-56.5,2.9l-5.1,589.1C742.1,589.7,781,586.3,804.4,606z"/>
</g>
</svg>
